# xmcd
#
# Track frame offsets: 
#        150
#        13860
#        24653
#        36040
#        51680
#        63715
#        78320
#        88838
#        103268
#        114848
#        127420
#        141205
#        153165
#        166020
#        179425
#        192163
#        204235
#        213968
#        225295
#        235020
#
# Disc length: 3296 seconds
#
# Revision: 0
# Processed by: cddbd v1.5.2PL0 Copyright (c) Steve Scherf et al.
# Submitted via: ExactAudioCopy v0.95b3
#
DISCID=100cde14
DTITLE=Various  - Black Music Originals Vol. 4   
DYEAR=1900
DGENRE=
TTITLE0=Little Milton-Lookin' For My baby
TTITLE1=Little Milton-Homesick For My Baby
TTITLE2=The Five Tinos-Don't Do That
TTITLE3=The Five Tinos-Sitting By My Window
TTITLE4=Eddie Snow-Ain't That Right
TTITLE5=Eddie Snow-Bring Your Love Back
TTITLE6=Rosco Gordon-Just Love Me Baby
TTITLE7=Rosco Gordon-Weeping Blues
TTITLE8=Billy 'The Kid' Emerson-Little Fine Healthy Thing
TTITLE9=Billy 'The Kid' Emerson-Something For Nothing
TTITLE10=Rosco Gordon-Love For You Baby
TTITLE11=Rosco Gordon-The Chicken
TTITLE12=Rosco Gordon-Cheese And Crackers
TTITLE13=Rosco Gordon-Shoobie Ooobie
TTITLE14=Rudi Richardson-Why Should I Cry
TTITLE15=Rudi Richardson-Fools Hall Of Fame
TTITLE16=Bill Pinky-After The Hop
TTITLE17=Bill Pinky-Sally's Got A Sister
TTITLE18=Rosco Gordon-Sally Jo
TTITLE19=Rosco Gordon-Torro
EXTD=
EXTT0=
EXTT1=
EXTT2=
EXTT3=
EXTT4=
EXTT5=
EXTT6=
EXTT7=
EXTT8=
EXTT9=
EXTT10=
EXTT11=
EXTT12=
EXTT13=
EXTT14=
EXTT15=
EXTT16=
EXTT17=
EXTT18=
EXTT19=
PLAYORDER=
